<svg xml:space="preserve" style="enable-background:new 0 0 122.88 110.33" viewBox="0 0 130 130" xmlns="http://www.w3.org/2000/svg"><path d="M56.424 10.517c-27.576 2.03-60.216 27.2-51.344 57.911 2.679 12.483 16.867 16.764 28.044 14.95 6.81 7.565 17.967 8.56 27.5 8.29 3.247 9.101 13.164 11.956 18.346 19.248 2.318 2.394.27 13.062 5.004 8.221.668-6.522-2.575-12.967-8.233-16.313-4.12-2.878-9.714-7.358-11.377-11.966l4.87-1.55c3.116 7.36 12.213 10.562 17.63 13.474l1.67 14.855c2.825 4.191 4.103-1.6 3.015-3.97l-1.345-11.98c9.655-.464 21.005-4.25 23.279-14.969a36.728 36.728 0 0 0 1.24-9.59c7.485-.963 11.912-9.582 11.792-16.643-.056-14.956-13.192-24.295-19.175-36.663-6.01-7.04-15.543-9.293-24.405-9.025-8.614-2.467-17.492-4.539-26.512-4.28zm.14 3.42 6.04.18c-2.362 4.133-5.67 9.712-4.22 14.653 5.615 2.538 2.46-8.889 5.81-10.85 2.448-6.083 9.337-1.223 13.77-.943-5.003 2.213-1.978 11.144-9.375 9.847-5.536 1.243-5.998 9.517-8.778 11.502-6.211-.637-10.458 5.05-14.412 8.956 2.24 6.543 7.916-6.033 12.817-5.515 5.19-.5 2.818 11.104 8.849 8.102-.053-4.115-6.076-8.922-1.911-14.152 1.328-5.238 6.389-6.416 10.684-7.509 1.012-5.819 5.495-13.14 12.644-9.795 11.095.313 19.614 9.12 22.992 19.115 10.05 7.906 18.382 28.901 3.325 36.042-7.652 1.373-15.236 3.04-22.725 5.128.192-3.272-.633-6.81 1.12-9.782 5.558-2.684 14.48-.092 15.84-9.228.989-4.582.453-14.415-5.05-15.12-1.624 4.88 5.538 12.592-.26 17.62-4.044 4.476-12.837-1.028-14.49 7.14-1.027 3.33-.45 6.844-.6 10.27-6.146 1.691-12.503 2.742-18.261 5.603-7.205 3.933-15.306 3.406-23.034 2.066-6.083-1.043-13.76-4.59-12.256-11.92-1.18-7.792 10.67-5.64 10.512-13.7 3.52-6.43 10.099-.998 14.725-2.688 1.405-5.497-10.307-4.127-12.805-3.123l-4.111 3.08-2.74 4.41c-5.271-2.937-5.516-8.395.422-10.762 5.89-5.263-3.45-14.074 4.407-19.247 2.834-3.68 5.89-9.1 4.702-13.89-5.6-2.064-1.68 8.713-5.961 9.83-3.776 2.666-4.005 12.974-9.9 5.58-2.226-1.434-11.396-.497-7.68 3.54 7.516-4.154 17.562 6.724 10.91 12.61-5.68 2.355-6.667 9.51-1.37 12.847 3.867 2.575-5.463 4.002-4.286 8.53-1.34 3.11 3.256 9.964-3.264 7.924-8.385.433-18.593-3.683-20.232-12.832-3.133-11.537-.563-24.636 8.16-33.249 4.326 5.65-3.85 13.552 1.806 19.391.74 3.013 7.246 5.13 5.156.52-4.48-3.06-4.15-8.847-2.386-13.315 3.3-4.646-4.772-8.896.105-11.627 3.46-1.97 8.16-9.3 11.74-2.43.086 3.002 5.428 8.362 5.163 2.714.334-5.434-12.644-8.57.138-10.903 5.64-2.92 11.94-4.45 18.27-4.62zm43.787 13.808c-7.086.253-2.257 9.102-7.647 10.771-6.962 2.006-5.66 8.993-6.098 13.976-4.52 1.525-9.102 4.78-14.006 2.64-1.884-.758-6.371-2.619-5.646 1.214 2.58 2.025 6.187 2.412 9.344 3.034 4.264-.1 7.963-2.546 11.945-3.803 4.553 3.766-9.064 9.622-1.314 10.907 3.28-3.534 9.506-9.312 3.525-13.558-1.73-6.077 1.44-10.825 6.866-13.294 2.81-2.944.542-8.022 4.586-10.017.106-.912-.636-1.815-1.555-1.87zm-20.707.113c-6.43 1.445 4.303 5.153.873 9.074 1.615 4.328-6.41 8.565-1.893 11.154 7.523-1.769 2.04-12.923 9.449-14.327 2.917-.087 7.167-4.712 2.192-4.743-2.898-.347-7.512 6.42-8.99-.25l-.827-.529-.804-.38zm-69.4 26.818c-4.534 2.306.21 9.55 4.329 10.06 4.68 1.15 9.578 4.304 9.4 9.75 4.65 4.485 3.632-5.518 1.063-7.506-3.002-5.575-13.454-3.596-13.212-11.183-.226-.652-.888-1.128-1.58-1.12zm66.62 10.33c-8.615-1.465-15.706 12.652-6.937 16.387 4.01-2.344-4.344-6.546.678-10.057 3.167-4.049 8.567-2.483 12.933-3.032 3.193-3.022-2.057-3.768-4.306-3.298zm-28.636 6.791c-2.904-1.16-9.142 3.24-3.975 4.16 8.669-4.265 11.68 9.708 20.185 7.203 3.638-4.897-6.92-2.16-7.784-6.783-2.124-2.506-4.86-5.027-8.426-4.58zm63.047 6.03c1.926 12.055-8.517 20.131-19.19 20.271-7.876 1.895-16.172-3.686-19.235-10.145 5.415-3.863 6.844 8.366 13.005 7.053 5.013 1.39 11.895 1.743 15.94-1.818-.133-5.557-7.493.176-11.32-.753-4.396-.13-10.858-3.888-11.131-6.893 7.24-3.745 13.25 5.486 21.07 1.755l6.33-1.71c3.65-4.73-4.42-2.63-6.87-1.68-1.5.967-10.504.42-10.32-1.003 7.216-1.806 14.376-3.84 21.72-5.077z"/></svg>